<mxfile host="app.diagrams.net" modified="2023-11-14T02:09:11.807Z" agent="Mozilla/5.0 (Windows NT 10.0; Win64; x64) AppleWebKit/537.36 (KHTML, like Gecko) Chrome/119.0.0.0 Safari/537.36 Edg/119.0.0.0" etag="JtW2WWiNgawWkk8aXcE7" version="22.1.0" type="github">
  <diagram id="R2lEEEUBdFMjLlhIrx00" name="Page-1">
    <mxGraphModel dx="2304" dy="1727" grid="1" gridSize="10" guides="1" tooltips="1" connect="1" arrows="1" fold="1" page="1" pageScale="1" pageWidth="850" pageHeight="1100" math="0" shadow="0" extFonts="Permanent Marker^https://fonts.googleapis.com/css?family=Permanent+Marker">
      <root>
        <mxCell id="0" />
        <mxCell id="1" parent="0" />
        <mxCell id="F8UitF7IzX7oZV4iPMqC-1" value="MUSICIAN" style="rounded=0;whiteSpace=wrap;html=1;fontSize=16;" vertex="1" parent="1">
          <mxGeometry x="60" y="110" width="120" height="60" as="geometry" />
        </mxCell>
        <mxCell id="F8UitF7IzX7oZV4iPMqC-2" value="INSTRUMENT" style="rounded=0;whiteSpace=wrap;html=1;fontSize=16;" vertex="1" parent="1">
          <mxGeometry x="695" y="120" width="120" height="60" as="geometry" />
        </mxCell>
        <mxCell id="F8UitF7IzX7oZV4iPMqC-3" value="ALBUM&lt;br&gt;" style="rounded=0;whiteSpace=wrap;html=1;fontSize=16;" vertex="1" parent="1">
          <mxGeometry x="710" y="600" width="120" height="60" as="geometry" />
        </mxCell>
        <mxCell id="F8UitF7IzX7oZV4iPMqC-4" value="SONG" style="rounded=0;whiteSpace=wrap;html=1;fontSize=16;" vertex="1" parent="1">
          <mxGeometry x="427.01" y="395" width="120" height="60" as="geometry" />
        </mxCell>
        <mxCell id="F8UitF7IzX7oZV4iPMqC-5" value="ORGANIZATION" style="rounded=0;whiteSpace=wrap;html=1;fontSize=16;" vertex="1" parent="1">
          <mxGeometry x="40" y="645" width="120" height="60" as="geometry" />
        </mxCell>
        <mxCell id="F8UitF7IzX7oZV4iPMqC-6" value="Surname&lt;span style=&quot;white-space: pre;&quot;&gt;&#x9;&lt;/span&gt;" style="ellipse;whiteSpace=wrap;html=1;fontSize=16;" vertex="1" parent="1">
          <mxGeometry x="-60" width="120" height="80" as="geometry" />
        </mxCell>
        <mxCell id="F8UitF7IzX7oZV4iPMqC-10" value="BirthDate" style="ellipse;whiteSpace=wrap;html=1;fontSize=16;rounded=0;" vertex="1" parent="1">
          <mxGeometry x="-130" y="80" width="130" height="80" as="geometry" />
        </mxCell>
        <mxCell id="F8UitF7IzX7oZV4iPMqC-12" value="Address" style="ellipse;whiteSpace=wrap;html=1;fontSize=16;rounded=0;" vertex="1" parent="1">
          <mxGeometry x="-130" y="170" width="130" height="80" as="geometry" />
        </mxCell>
        <mxCell id="F8UitF7IzX7oZV4iPMqC-14" value="Name&lt;span style=&quot;white-space: pre;&quot;&gt;&#x9;&lt;/span&gt;" style="ellipse;whiteSpace=wrap;html=1;fontSize=16;" vertex="1" parent="1">
          <mxGeometry x="60" y="-10" width="120" height="80" as="geometry" />
        </mxCell>
        <mxCell id="F8UitF7IzX7oZV4iPMqC-17" value="Musician_Id" style="ellipse;whiteSpace=wrap;html=1;fontSize=16;" vertex="1" parent="1">
          <mxGeometry x="190" width="120" height="80" as="geometry" />
        </mxCell>
        <mxCell id="F8UitF7IzX7oZV4iPMqC-18" value="Phone" style="ellipse;whiteSpace=wrap;html=1;fontSize=16;" vertex="1" parent="1">
          <mxGeometry x="-90" y="250" width="120" height="80" as="geometry" />
        </mxCell>
        <mxCell id="F8UitF7IzX7oZV4iPMqC-20" value="" style="endArrow=none;html=1;rounded=0;fontSize=12;startSize=8;endSize=8;curved=1;entryX=0.363;entryY=0.958;entryDx=0;entryDy=0;entryPerimeter=0;" edge="1" parent="1" target="F8UitF7IzX7oZV4iPMqC-14">
          <mxGeometry width="50" height="50" relative="1" as="geometry">
            <mxPoint x="90" y="110" as="sourcePoint" />
            <mxPoint x="140" y="60" as="targetPoint" />
          </mxGeometry>
        </mxCell>
        <mxCell id="F8UitF7IzX7oZV4iPMqC-21" value="" style="endArrow=none;html=1;rounded=0;fontSize=12;startSize=8;endSize=8;curved=1;entryX=0;entryY=1;entryDx=0;entryDy=0;" edge="1" parent="1" target="F8UitF7IzX7oZV4iPMqC-17">
          <mxGeometry width="50" height="50" relative="1" as="geometry">
            <mxPoint x="180" y="120" as="sourcePoint" />
            <mxPoint x="230" y="70" as="targetPoint" />
          </mxGeometry>
        </mxCell>
        <mxCell id="F8UitF7IzX7oZV4iPMqC-22" value="" style="endArrow=none;html=1;rounded=0;fontSize=12;startSize=8;endSize=8;curved=1;exitX=0.657;exitY=0.953;exitDx=0;exitDy=0;exitPerimeter=0;" edge="1" parent="1" source="F8UitF7IzX7oZV4iPMqC-6">
          <mxGeometry width="50" height="50" relative="1" as="geometry">
            <mxPoint x="10" y="180" as="sourcePoint" />
            <mxPoint x="60" y="130" as="targetPoint" />
          </mxGeometry>
        </mxCell>
        <mxCell id="F8UitF7IzX7oZV4iPMqC-23" value="" style="endArrow=none;html=1;rounded=0;fontSize=12;startSize=8;endSize=8;curved=1;exitX=1;exitY=0.5;exitDx=0;exitDy=0;" edge="1" parent="1" source="F8UitF7IzX7oZV4iPMqC-12">
          <mxGeometry width="50" height="50" relative="1" as="geometry">
            <mxPoint x="10" y="220" as="sourcePoint" />
            <mxPoint x="60" y="170" as="targetPoint" />
          </mxGeometry>
        </mxCell>
        <mxCell id="F8UitF7IzX7oZV4iPMqC-24" value="" style="endArrow=none;html=1;rounded=0;fontSize=12;startSize=8;endSize=8;curved=1;exitX=0.972;exitY=0.673;exitDx=0;exitDy=0;exitPerimeter=0;" edge="1" parent="1" source="F8UitF7IzX7oZV4iPMqC-10">
          <mxGeometry width="50" height="50" relative="1" as="geometry">
            <mxPoint x="10" y="190" as="sourcePoint" />
            <mxPoint x="60" y="140" as="targetPoint" />
          </mxGeometry>
        </mxCell>
        <mxCell id="F8UitF7IzX7oZV4iPMqC-25" value="" style="endArrow=none;html=1;rounded=0;fontSize=12;startSize=8;endSize=8;curved=1;exitX=1;exitY=0.5;exitDx=0;exitDy=0;entryX=0.157;entryY=1.037;entryDx=0;entryDy=0;entryPerimeter=0;" edge="1" parent="1" source="F8UitF7IzX7oZV4iPMqC-18" target="F8UitF7IzX7oZV4iPMqC-1">
          <mxGeometry width="50" height="50" relative="1" as="geometry">
            <mxPoint x="60" y="220" as="sourcePoint" />
            <mxPoint x="110" y="170" as="targetPoint" />
          </mxGeometry>
        </mxCell>
        <mxCell id="F8UitF7IzX7oZV4iPMqC-29" value="" style="shape=stencil(lVpdcxs3DPw1euXwm8Szm/6PzMSuNXXtjOM0yb/PsiqlO+BuJb3JMvaOJIDFAtQhPXx7/vz18RD9t4/3t78ffxy/fDwf0h+HGI+vz4/vxw98OqRPh/Tw9Pb++Nf72/fXL6e/v34eluPTP2//jif8POG862WAov91+qJmV+S/b/482b8cXxf20cWu7Wvct88uqOcnV/2+fXEpaPvU9u2rK1Hbx7Jv31w3z/9/R5v24kI266n79sG7YgCFLChE55MGdOKBgOc17QK25VCc9xqQEgHU+e/lG4iTQ3M1aIAnXgt9ww2dLUmcdHOsLE6D8waQSODF5LyK1OgqWRJCW7IGeBIaiNWuYjXMc9sGdNe8BkRyrMmb0AjT99uAOIP5DPCuEU+n7LJoAIvWVIyng0sk4VKbW1weK9t0d2JiyZN8yH76dRmtxA85TgpaAHomgHP0nwGFslguxtOF0mRuLlQNyMQPubtcNCAw4paZX0umJ8dagnkDT9EC5lWOi64RP5TziheAwJaEWFqnaBEafKW7tH5DqTRF8bys3sDrTzUpioNmNDM4Yv0GBAujynGI69DIwQnxw4V6JwApxUKjGuZDlgeSD7XO/DoDIqWZ2rSnU3CFcGvFikUDGAk0r+ke0kDIklpwbe24yOt0S1oqoYhVQgItayILPKebKSjQBoFEa+ta7cmMlU37HkxNnPJs2z5q7s6T17btQRAqLijV92w2POXftn110St7RvS9zSCb9t4JW0+fIXN5fiD7Fa/PB/WcnL8EfT6wJ6kvUVe2QBWJpMm3l/12Zl+0zvM0HqRP4rnYMzkiotW/n7Jvz76u/Zum2tizV0x3po09e1nHAxKMpXDwXmvtkfR8C7JeElqgwgGK3qH6GmE6AHSSoZAzL4uuy6k6YW4DrayZbog4FqddF8FUaJkFIClHR9qRABDWANB75m9QjkPuVBYbBgC2rqQI2iUJLTh2z4WSuz3UQGus9Zrnzzdh4af2uTHuIs0dG9iVykebOSHQaraVnO1aJqj8jzz/LcGMAQJPTs1gqIksdQxFIjnZQMJyMJIz8Ti9E2CqAgCeRZ4pO9hDZpxn6hoAkcWGKZwAUD94LdYG4ErpN0vKTEs13U8B0Mmmh3ip+lgL8QPUkZqRQMezaIX8qmsAWmNhe4i6xcuJFlAIyGial8wUG1J0fUrodFk5bKIl6mhcmcquOrwLnzA20O76lNCHMj80M6BDl8hkWIu6PUIPR4W/18eKZp4NJNAeRTXy6PRY0bHpN/DmZUwI13tAO8Pmbeg6VYuH7oTVn2pOCdHFCihabdVP9UJLOtzU1rHUhUZr6TqnwVTCBxJZaYBCM64YEpBG64OdkVx0wY1TmIuyuXHOgyUFsiQ7SZJK2zw7q5J7p2EAMAFq521yZRpmJnoAJDZkNDNDABjd26kkTok1z3buCT+wFLWTVXiaTfTs7HaoD0Izdjp8EUQ3zp8XIu3GEffQjcRzdogOQCa7tmN6ABgx2YuAca7sIsBcNYyUu+syA65mxGSvS67kqL2QQfTRWyhz5QMACyZ7qQRAIZ6211YApLsuxgDIrFs3V29y9v1OB6Ev9+TMPNuyUt8ewp6JdXM7OfzM6rq+/Rz2jOx18zDWw1hM395KozRpbodxoGwgZm6fhz0JU69n4aMwkP16U0jyHPDv2Ov1R+pfr/0LwcCfrxIfioTpBdOwjgkrXY+yh6ZiTYlZD0Rbo+ep9tvCFDS3neeQnXS/+gqJp7yJB+hgNvW/99cO1+3x4fLTiqfjy8vplxnL/+ufYuCr08840qff);lineShape=1;fontSize=16;" vertex="1" parent="1">
          <mxGeometry x="206.38785844139693" y="51.23171912117425" width="95.98610182058292" height="5.187116592320535" as="geometry" />
        </mxCell>
        <mxCell id="F8UitF7IzX7oZV4iPMqC-30" value="Name" style="ellipse;whiteSpace=wrap;html=1;fontSize=16;rounded=0;" vertex="1" parent="1">
          <mxGeometry x="187.73000000000002" y="535" width="80" height="50" as="geometry" />
        </mxCell>
        <mxCell id="F8UitF7IzX7oZV4iPMqC-32" value="Organization_Id" style="ellipse;whiteSpace=wrap;html=1;fontSize=16;" vertex="1" parent="1">
          <mxGeometry x="-142.37" y="530" width="122.37" height="55" as="geometry" />
        </mxCell>
        <mxCell id="F8UitF7IzX7oZV4iPMqC-33" value="Address" style="ellipse;whiteSpace=wrap;html=1;fontSize=16;rounded=0;" vertex="1" parent="1">
          <mxGeometry x="-100" y="645" width="80" height="50" as="geometry" />
        </mxCell>
        <mxCell id="F8UitF7IzX7oZV4iPMqC-34" value="Phone" style="ellipse;whiteSpace=wrap;html=1;fontSize=16;rounded=0;" vertex="1" parent="1">
          <mxGeometry x="126.38999999999999" y="750" width="80" height="50" as="geometry" />
        </mxCell>
        <mxCell id="F8UitF7IzX7oZV4iPMqC-36" value="Webpage" style="ellipse;whiteSpace=wrap;html=1;fontSize=16;rounded=0;" vertex="1" parent="1">
          <mxGeometry y="750" width="80" height="50" as="geometry" />
        </mxCell>
        <mxCell id="F8UitF7IzX7oZV4iPMqC-38" value="" style="endArrow=none;html=1;rounded=0;fontSize=12;startSize=8;endSize=8;curved=1;entryX=0;entryY=0.5;entryDx=0;entryDy=0;exitX=1;exitY=0.5;exitDx=0;exitDy=0;" edge="1" parent="1" source="F8UitF7IzX7oZV4iPMqC-33" target="F8UitF7IzX7oZV4iPMqC-5">
          <mxGeometry width="50" height="50" relative="1" as="geometry">
            <mxPoint x="-20" y="675" as="sourcePoint" />
            <mxPoint x="30" y="625" as="targetPoint" />
          </mxGeometry>
        </mxCell>
        <mxCell id="F8UitF7IzX7oZV4iPMqC-40" value="" style="endArrow=none;html=1;rounded=0;fontSize=12;startSize=8;endSize=8;curved=1;exitX=0;exitY=0;exitDx=0;exitDy=0;entryX=0.5;entryY=1;entryDx=0;entryDy=0;" edge="1" parent="1" source="F8UitF7IzX7oZV4iPMqC-5" target="F8UitF7IzX7oZV4iPMqC-32">
          <mxGeometry width="50" height="50" relative="1" as="geometry">
            <mxPoint x="20" y="635" as="sourcePoint" />
            <mxPoint x="70" y="585" as="targetPoint" />
          </mxGeometry>
        </mxCell>
        <mxCell id="F8UitF7IzX7oZV4iPMqC-41" value="" style="endArrow=none;html=1;rounded=0;fontSize=12;startSize=8;endSize=8;curved=1;exitX=0.75;exitY=0;exitDx=0;exitDy=0;entryX=0.5;entryY=1;entryDx=0;entryDy=0;" edge="1" parent="1" source="F8UitF7IzX7oZV4iPMqC-5" target="F8UitF7IzX7oZV4iPMqC-30">
          <mxGeometry width="50" height="50" relative="1" as="geometry">
            <mxPoint x="100" y="635" as="sourcePoint" />
            <mxPoint x="150" y="575" as="targetPoint" />
          </mxGeometry>
        </mxCell>
        <mxCell id="F8UitF7IzX7oZV4iPMqC-42" value="" style="endArrow=none;html=1;rounded=0;fontSize=12;startSize=8;endSize=8;curved=1;entryX=0.5;entryY=1;entryDx=0;entryDy=0;exitX=0.5;exitY=0;exitDx=0;exitDy=0;" edge="1" parent="1" source="F8UitF7IzX7oZV4iPMqC-36" target="F8UitF7IzX7oZV4iPMqC-5">
          <mxGeometry width="50" height="50" relative="1" as="geometry">
            <mxPoint x="-20" y="765" as="sourcePoint" />
            <mxPoint x="30" y="715" as="targetPoint" />
          </mxGeometry>
        </mxCell>
        <mxCell id="F8UitF7IzX7oZV4iPMqC-43" value="" style="endArrow=none;html=1;rounded=0;fontSize=12;startSize=8;endSize=8;curved=1;exitX=0.75;exitY=1;exitDx=0;exitDy=0;entryX=0.5;entryY=0;entryDx=0;entryDy=0;" edge="1" parent="1" source="F8UitF7IzX7oZV4iPMqC-5" target="F8UitF7IzX7oZV4iPMqC-34">
          <mxGeometry width="50" height="50" relative="1" as="geometry">
            <mxPoint x="180" y="715" as="sourcePoint" />
            <mxPoint x="230" y="665" as="targetPoint" />
          </mxGeometry>
        </mxCell>
        <mxCell id="F8UitF7IzX7oZV4iPMqC-45" value="Type" style="ellipse;whiteSpace=wrap;html=1;fontSize=16;rounded=0;" vertex="1" parent="1">
          <mxGeometry x="755" width="80" height="50" as="geometry" />
        </mxCell>
        <mxCell id="F8UitF7IzX7oZV4iPMqC-46" value="Production_Date" style="ellipse;whiteSpace=wrap;html=1;fontSize=16;rounded=0;" vertex="1" parent="1">
          <mxGeometry x="800" y="61.23" width="150" height="50" as="geometry" />
        </mxCell>
        <mxCell id="F8UitF7IzX7oZV4iPMqC-47" value="Instrument_Id" style="ellipse;whiteSpace=wrap;html=1;fontSize=16;rounded=0;" vertex="1" parent="1">
          <mxGeometry x="625" y="20" width="110" height="55" as="geometry" />
        </mxCell>
        <mxCell id="F8UitF7IzX7oZV4iPMqC-48" value="Price" style="ellipse;whiteSpace=wrap;html=1;fontSize=16;rounded=0;" vertex="1" parent="1">
          <mxGeometry x="875" y="140" width="80" height="50" as="geometry" />
        </mxCell>
        <mxCell id="F8UitF7IzX7oZV4iPMqC-50" value="" style="endArrow=none;html=1;rounded=0;fontSize=12;startSize=8;endSize=8;curved=1;exitX=0.75;exitY=0;exitDx=0;exitDy=0;entryX=0.5;entryY=1;entryDx=0;entryDy=0;" edge="1" parent="1" source="F8UitF7IzX7oZV4iPMqC-2" target="F8UitF7IzX7oZV4iPMqC-45">
          <mxGeometry width="50" height="50" relative="1" as="geometry">
            <mxPoint x="745" y="100" as="sourcePoint" />
            <mxPoint x="795" y="50" as="targetPoint" />
          </mxGeometry>
        </mxCell>
        <mxCell id="F8UitF7IzX7oZV4iPMqC-51" value="" style="endArrow=none;html=1;rounded=0;fontSize=12;startSize=8;endSize=8;curved=1;entryX=0.5;entryY=1;entryDx=0;entryDy=0;exitX=0.25;exitY=0;exitDx=0;exitDy=0;" edge="1" parent="1" source="F8UitF7IzX7oZV4iPMqC-2" target="F8UitF7IzX7oZV4iPMqC-47">
          <mxGeometry width="50" height="50" relative="1" as="geometry">
            <mxPoint x="635" y="120" as="sourcePoint" />
            <mxPoint x="675" y="80" as="targetPoint" />
          </mxGeometry>
        </mxCell>
        <mxCell id="F8UitF7IzX7oZV4iPMqC-52" value="" style="endArrow=none;html=1;rounded=0;fontSize=12;startSize=8;endSize=8;curved=1;entryX=0;entryY=1;entryDx=0;entryDy=0;exitX=1;exitY=0.25;exitDx=0;exitDy=0;" edge="1" parent="1" source="F8UitF7IzX7oZV4iPMqC-2">
          <mxGeometry width="50" height="50" relative="1" as="geometry">
            <mxPoint x="795" y="260" as="sourcePoint" />
            <mxPoint x="855.6581453732479" y="103.46034414994574" as="targetPoint" />
          </mxGeometry>
        </mxCell>
        <mxCell id="F8UitF7IzX7oZV4iPMqC-53" value="" style="endArrow=none;html=1;rounded=0;fontSize=12;startSize=8;endSize=8;curved=1;entryX=0;entryY=0.5;entryDx=0;entryDy=0;exitX=1;exitY=0.75;exitDx=0;exitDy=0;" edge="1" parent="1" source="F8UitF7IzX7oZV4iPMqC-2" target="F8UitF7IzX7oZV4iPMqC-48">
          <mxGeometry width="50" height="50" relative="1" as="geometry">
            <mxPoint x="805" y="210" as="sourcePoint" />
            <mxPoint x="855" y="160" as="targetPoint" />
          </mxGeometry>
        </mxCell>
        <mxCell id="F8UitF7IzX7oZV4iPMqC-54" value="Title" style="ellipse;whiteSpace=wrap;html=1;fontSize=16;rounded=0;" vertex="1" parent="1">
          <mxGeometry x="285.62" y="435" width="80" height="50" as="geometry" />
        </mxCell>
        <mxCell id="F8UitF7IzX7oZV4iPMqC-55" value="Composer" style="ellipse;whiteSpace=wrap;html=1;fontSize=16;rounded=0;" vertex="1" parent="1">
          <mxGeometry x="525.62" y="485" width="80" height="50" as="geometry" />
        </mxCell>
        <mxCell id="F8UitF7IzX7oZV4iPMqC-56" value="Song_Id" style="ellipse;whiteSpace=wrap;html=1;fontSize=16;rounded=0;" vertex="1" parent="1">
          <mxGeometry x="240" y="385" width="80" height="50" as="geometry" />
        </mxCell>
        <mxCell id="F8UitF7IzX7oZV4iPMqC-57" value="Lyricist" style="ellipse;whiteSpace=wrap;html=1;fontSize=16;rounded=0;" vertex="1" parent="1">
          <mxGeometry x="437.01" y="485" width="80" height="50" as="geometry" />
        </mxCell>
        <mxCell id="F8UitF7IzX7oZV4iPMqC-58" value="Soloist" style="ellipse;whiteSpace=wrap;html=1;fontSize=16;rounded=0;" vertex="1" parent="1">
          <mxGeometry x="347.01" y="485" width="80" height="50" as="geometry" />
        </mxCell>
        <mxCell id="F8UitF7IzX7oZV4iPMqC-59" value="" style="endArrow=none;html=1;rounded=0;fontSize=12;startSize=8;endSize=8;curved=1;exitX=0.5;exitY=0;exitDx=0;exitDy=0;" edge="1" parent="1" source="F8UitF7IzX7oZV4iPMqC-58" target="F8UitF7IzX7oZV4iPMqC-4">
          <mxGeometry width="50" height="50" relative="1" as="geometry">
            <mxPoint x="387.01" y="515" as="sourcePoint" />
            <mxPoint x="437.01" y="465" as="targetPoint" />
          </mxGeometry>
        </mxCell>
        <mxCell id="F8UitF7IzX7oZV4iPMqC-60" value="" style="endArrow=none;html=1;rounded=0;fontSize=12;startSize=8;endSize=8;curved=1;exitX=0.5;exitY=0;exitDx=0;exitDy=0;" edge="1" parent="1" source="F8UitF7IzX7oZV4iPMqC-57" target="F8UitF7IzX7oZV4iPMqC-4">
          <mxGeometry width="50" height="50" relative="1" as="geometry">
            <mxPoint x="457.01" y="515" as="sourcePoint" />
            <mxPoint x="507.01" y="465" as="targetPoint" />
          </mxGeometry>
        </mxCell>
        <mxCell id="F8UitF7IzX7oZV4iPMqC-61" value="" style="endArrow=none;html=1;rounded=0;fontSize=12;startSize=8;endSize=8;curved=1;entryX=0.75;entryY=1;entryDx=0;entryDy=0;exitX=0;exitY=0;exitDx=0;exitDy=0;" edge="1" parent="1" source="F8UitF7IzX7oZV4iPMqC-55" target="F8UitF7IzX7oZV4iPMqC-4">
          <mxGeometry width="50" height="50" relative="1" as="geometry">
            <mxPoint x="487.01" y="515" as="sourcePoint" />
            <mxPoint x="537.01" y="465" as="targetPoint" />
          </mxGeometry>
        </mxCell>
        <mxCell id="F8UitF7IzX7oZV4iPMqC-62" value="" style="endArrow=none;html=1;rounded=0;fontSize=12;startSize=8;endSize=8;curved=1;entryX=1;entryY=0.5;entryDx=0;entryDy=0;exitX=0;exitY=0.75;exitDx=0;exitDy=0;" edge="1" parent="1" source="F8UitF7IzX7oZV4iPMqC-4" target="F8UitF7IzX7oZV4iPMqC-54">
          <mxGeometry width="50" height="50" relative="1" as="geometry">
            <mxPoint x="507.01" y="385" as="sourcePoint" />
            <mxPoint x="557.01" y="335" as="targetPoint" />
          </mxGeometry>
        </mxCell>
        <mxCell id="F8UitF7IzX7oZV4iPMqC-63" value="" style="endArrow=none;html=1;rounded=0;fontSize=12;startSize=8;endSize=8;curved=1;entryX=1;entryY=0.5;entryDx=0;entryDy=0;" edge="1" parent="1" target="F8UitF7IzX7oZV4iPMqC-56">
          <mxGeometry width="50" height="50" relative="1" as="geometry">
            <mxPoint x="425.62" y="407" as="sourcePoint" />
            <mxPoint x="597.01" y="375" as="targetPoint" />
          </mxGeometry>
        </mxCell>
        <mxCell id="F8UitF7IzX7oZV4iPMqC-64" value="" style="shape=stencil(rVlbbhsxDDyNfwlJ1IP6Ttt7BIjTGE3jwElfty+3hjYWaU8coH/2mrMSh296wzcvD7fP200KL6+H/bftr93d68OGP21S2j09bA+7V/204c8bvrnfH7ZfD/sfT3fH78+3i+Ty6fv+5/KG30dcJA4LKIU/xwdMkv49+HIUf9w9nYgzcZnEM0UgXqhV8/ZQL4sLxTyJJ0rxsngMVNIkH6kwkE/UZ2UD9Q7kCyUx8gVcPzaqxcgncB/9OSYjH5B8ombfHwKQL1SsvgHoq/znbOQZ3IfVeaKRzwXIZwrz++Mg7Lx8tXwWyg3Id4qzfKcql+VzGt643icTgwMyUzMOV6lnANALmxMEUpobsTmhU0IndBvAi5FRSKrRsgVUoHRheyU1W0CAQlEsAMVxURLdCREEWhEq0erQAaAG63kKaMAOVUPNAVDs1ELcreFQsqhiU+liBwToJLMvaT5A4dCiOyEP3s4DEolRusIAbXk48woQEkBraxRnwzFDX2oawTOt3CgB95Y0SsBaoSKkVTREZ2/NlRLIqlKHq60AgXYQGVlxTWPY+aRTn3UoCRaqro4ws1QyTAJ9vfEKYJjIFGCUXqIcuEbvlOe8pEFb0QndRlxVHfAJfaa1Bdi7xLCWyxUhsEDrETLzKmtJvQSosxI9jldcAqSZ116pgRhVQ8isw8I08G8FsAMIArTB4grQJ8C/9ec8B3VnWHe7ywLSRmdzHlCtqSWMvHAloDG2tLtSrRQ/pLTWGFSoPa1a9lDq84ZbghrR6lxDARkBnPMVTa445Ix7a52EOrgA0rKHvPVcjJaRGK5MA8JjjLgy0Sz5FoWcS2W9jMb3ymT5Zpor0/EJD/8LoTViLiqqFwOelJVqAA1XUnHtd4HG1kpaDU8apaiSus5S0ysKCe0G0hx0emYDLLVuu+O3V5wH6PtmD9ceBynd3BC0tF3ohFXF0xhCvatYliru+3zvWnlc8sruWJ/AE1z/XSOsKb7DVwBqH/wMoQDEkp9SFICGPz8HLSeAIrRMWuyUBpbWWc7sG5TWd6bF1CygoQFWLV0tQNCIzLZ3Xa6EToh25aO2Ryyxr1p1FL5LWwGzdVCiUXbVEcOMNcqbAF/yew0dCVAh9YsTBdQPbWYUgK7kVz8K6B/aLS0AtExzy6uMU6XfjikAuYZfv6k7oqHD7/eWfQoazez+MGc4aLn1pLo7ykp++6nRgzi1HZy+PwL5dR158v4CCAp2OM4BtvbBtgAafKjJDbZ6cqYKEliwlYoDzMGu11OLoPWBl48UgT+4+8QKxzenr7osavQcnzIc6jpz4QHAe8Mo09c5G97kvyuuH97+NLjfPT4e/3M4/d3+yaCPjn9Q8Oe/);lineShape=1;fontSize=16;" vertex="1" parent="1">
          <mxGeometry x="247.72553837015175" y="420.7475566645319" width="67.3140061254503" height="4.485187964944089" as="geometry" />
        </mxCell>
        <mxCell id="F8UitF7IzX7oZV4iPMqC-65" value="" style="shape=stencil(rVrbblw3DPyafSUkUdfnNP2PAHHqRV07cNw2+ftS3Z6TI8561gb6Zns5lngfUnvSD9/uP329O6Xw7eX56fe7v8+fX+5P+ssppfPj/d3z+cV+OunHk3748vR899vz05+Pny+/f/00JedPfzz9Nf/D9wsuSC8TlMKPyx+ijPrvH369iD+cHw/iSTQs4klCeF08S9RFPEjLr4sXScGJK7lMFfX/PZLLNClenN29S+9OPMXXxWPwpglSEpGP0puzfCS2iSolL/LK5YuEscgXUSZf/f9vkgeRbzJW+SGVOCuOzZe7viqJhVqQuh5gR6ZCAHss7sGpEtgJKhpXwJDcCSBLXbNFszR2QpWwOlmHdBJ0M0jXqMtZOgkju3FcT8hjc8xVgFoKrmlQlCqtkPOlSiaZoCp9dVxpUtkJe2TugE5jW+tmkwMgNQLooIMB2JWGtAYAcqUct4+POpD8yenaCUQHCwQdHlDYlYoMsFIhCZQt4wHAQiN38DTXoVgNVQ8IrCNEX5Uslv6L3+sANGsTJQlk0d+dWeum1XVAAYD9hV2pbSm/A7IMEhrFgq94QCZVowbwQ94C/jrASqUCgHi67rX6AGDtrdrH0QMqCY1atkp6ALDKV5uEBGYljqt7yh8cF0g+1L0bHAHE081a/gAdiNIt+XI//UB0aGZEMCtjMa1AuTcAqd6tygBAJFZq3XegWzqgWfe+ep2JBSj35mli1p7gSoXWpa6eGxqAhXe3vg+hURibtGIcPUCJH3oDQKZdtI8rVorkhBGluROU+mHYx8EDWJkZZaOQBwBLoNEh+BLlS2Nsfj2GNwk+A/iMM3JCPD3ArFYLI+F8BhhrIbOyEBiTDsET18YJ0zxiNZOFFyNMAzqKOf/GCS5HR71lprhqPf8FCybjDtEDOrNrhys12iDGTsB2wJ7m1wGWcusJloRUh+ZnOCtViV0JAD87wBuvVPkYh0qXQUsfmnUWV3YlcJzlKOu7GBqzbPAM8leqEnm0uvCucds8vDGBjE0wdnItR8vNI1atrSu1dxUaq+i0HEMps3rLRg4slubLxmPDmelgh/8LAT1iepM5G7rQNMS7+tyMSMY3wBPTTqy5Q6+eacjoA7CBwbctyDcMwFovMhoDsIkXOdNotFoiK5vVjbFj7Cn9ncxyFitSOJC7GoClELLjWd0YnQb+fQsADP+WDjBDzB5AzIpTigFYAuEcNAFszwqT1vQ0A8AsN3Ug4Y3T4gwNpjTMo4MvdHDinX4gKYoztQEYw8epfZ5A6hLuBaZZGQA2D0bK2ByEuw2rtmy9j9uTWZ6JWXE/Y4DAALABGnyFijsmA7C6hFssA7ANEO7JDMAWzbiJmwCmA5qVb09wmzgBJIFwXzkybYpq6QI6KDuhAl/PlOvOra4zq9JCpioN+DpdNGPLSpQca/DF2Fp9I0onozNrTvdKmUBq/k3K+iobIVLxRcBmv8EA5qb1Sk1pxqXkuYbV80KqRor+lWOyaeKH+UwHyxC2TYw4EQQ6c8TmuYZluTK+XiWvfrAsZ29B87ls9UPmU01U33YtaZU4Dh/8cqCxhC+K8wS2MvIvliZfGSHzFNHkGYGD91aTp7t4/5xr8pm9cPjXYpNnD7rwMDUf18h94K17ypP7BHjtG7SRhC3Td/lGHRw8D7OSyfIsbGx5lzf/kuoVtu32Jm8erySkYcRNunnwbfKx03iD+8RM51XQNwY6L4A9Kw1PcFemlBOiIdEG+84vVtwUtx9+fofjy/nh4fIVkOPn/jsf9qfL90X04z8=);lineShape=1;fontSize=16;" vertex="1" parent="1">
          <mxGeometry x="635.186009994042" y="59.006722380039605" width="95.2396109790011" height="4.325532212863209" as="geometry" />
        </mxCell>
        <mxCell id="F8UitF7IzX7oZV4iPMqC-66" value="" style="shape=stencil(lVrZbhw3EPyafSV4NK9nx/kPA5YjIYpkyEpi/32KWHB22D1bE73Ja9aQfVUXe+aSPv14/PL94RL9j/e31z8f/n36+v54Sb9dYnx6eXx4e3rHX5f0+ZI+fXt9e/jj7fXvl6/Xf3//MlaOv/56/Wc84ecV513zAxT9r+sPweXrD79flz8/veyWR+erWl76/eXJ5aKWe/L07Hxalnsncn95mUe9LWdPr653dZia7i/v+uzYjhwmwDRZHw9nFQKIroQV0FwLBCAurScaDmNHyi6tO8TmAtuhuLR6NAUXSHxDNQBxkRndDGB7xDGgaxvEuxRJhnoX4wqIHLCZuAHE9UwA0ezQXG0EkPQOObheCUD0DhmRJnFAIii3ZkSaHQmRXo9UgovM6OqkrQAckh2puawAdYbyGICCU0fqFIDcTCsZVcSeVHSKrgcN8AwgTrw+UiXZmrJrVQOEAaqJQ3eRAbrzUQMCsQHlUooGsFy6lcseQGpaknZraZNqjwHZiQE0knxSXGsawLgbBZmyBhRCAtJdFwMgR0IF62zFkcgOOblodqiEBLK4ZnZobIdy4NZK+kOuBzsUBui6AwGQSWoUfxA41kVLdKKSr8z8PQaI8yrS+IWwRsmurjbAKiFUeTvABig0DjBRsQaSpTEbumYN4UZXMN8qlCRQGyq0xroDiKczrZRmg9o19krcWrMWYynNBnAMKK43DUiENSrcmg2A5FJFTUcDIIFrQZPxABCjW5y09X8Borl1AEgcWj6wQdgOVcvWEQfipYZ+EzSAkUD3M5l3ACqk44FbC0mNng52KMRLPet6ODG693lT2LuVHambwAmNNABK3adCCwiApmraTy68B1Alir7qSUMJ3murs3eB8MzYYj0TdOgJwJLrSSCy4vtIuRIAJY3B95U06t4m0W2ATEUfALqzJ8rGAGjB5Ol9AICwAvJJbjQt+k46igWgozApYI+EjtIIG1uj0VHY7dW6FRXU+ZG67Sgkv21qAMBkpU0+6HeaSya9E5fGtoAgloXscFCj0ijC0kA+5T5FNCd3RUtluCsy8WDJ8uSuaOkYNRo4930QYDpE4WRpe9AAMKNNl4PRnR3J9FEAGjmS7dRjB5J9VgsMGxjAqI3hVhI4q2dK5nrGKKYzgNFkALBcsqpvAJgQNbpyAEgchnK1R2I7QBubHZiIqzJnMbtbEMtW6HtFAuOuyLTxNrfdRiFhToKPAV5PmGqhNoy75wpAKBvpu6Xq6W8rdNgCn4S1HlAhTLneknkCULSMW9H4ZT1SL3ScA2JUDWIwFbtc+jmL2YbAnk+xQdYl6S068Stu+SFrAAsENF4xRtA5gkxW2QPYDlFPKgaAuAk61fqV5bdsQ7G9l4hbpeomN3bgM6kgH/GSyIFbC6kgSAW7A7ukjCFANwBiQ9qcuAeQnpXaHE7uAIkQEy49xQDYnBkKTAeu0Vn5uBpmDWCjvhSNWxvVDsmbbK20K0b4ZB1t9C1Z7s3KFblCfrAJaqwmDuFs3h8UGzcauJi1woI4YOo7mikwej0jgRi1DkXrZgPRGOYFY9eCMhPTXY+Y0MXY68rQNGCMK4kNoZq+m6nRoRhApOwd8pR4u8tlYEaLBqABsDFZMKM+8LmwOULSbzpxGxX+plP1B9xp6ItLr++KoDYWh65LelzkmF7Sb71T4ENjPdxExbIJlnmRjfX0zZQW6jghe755DR+3aerhevOWH89ndOF1M8Tz2eXea50ED7CBhp8Ce1uf6CtXr+M7vjsg/vT6pcB4tU4K31y6UXYfWw+u4+tVj6Jyx5hbabkYbwp9E2WDRRusyYVAb6kf/KDkdDn+uH278u3p+fn66cv+//W3Lvjp+p1M+vwf);lineShape=1;fontSize=16;" vertex="1" parent="1">
          <mxGeometry x="-133.63661874815864" y="569.6072895017214" width="108.96818702383462" height="6.86456877170815" as="geometry" />
        </mxCell>
        <mxCell id="F8UitF7IzX7oZV4iPMqC-67" value="Title" style="ellipse;whiteSpace=wrap;html=1;fontSize=16;rounded=0;" vertex="1" parent="1">
          <mxGeometry x="650" y="680" width="80" height="50" as="geometry" />
        </mxCell>
        <mxCell id="F8UitF7IzX7oZV4iPMqC-69" value="Date" style="ellipse;whiteSpace=wrap;html=1;fontSize=16;rounded=0;" vertex="1" parent="1">
          <mxGeometry x="750" y="700" width="80" height="50" as="geometry" />
        </mxCell>
        <mxCell id="F8UitF7IzX7oZV4iPMqC-70" value="Album_Id&lt;span style=&quot;white-space: pre;&quot;&gt;&#x9;&lt;/span&gt;" style="ellipse;whiteSpace=wrap;html=1;fontSize=16;rounded=0;" vertex="1" parent="1">
          <mxGeometry x="890" y="670" width="80" height="50" as="geometry" />
        </mxCell>
        <mxCell id="F8UitF7IzX7oZV4iPMqC-71" value="" style="endArrow=none;html=1;rounded=0;fontSize=12;startSize=8;endSize=8;curved=1;entryX=1;entryY=0.75;entryDx=0;entryDy=0;exitX=0;exitY=0;exitDx=0;exitDy=0;" edge="1" parent="1" source="F8UitF7IzX7oZV4iPMqC-70" target="F8UitF7IzX7oZV4iPMqC-3">
          <mxGeometry width="50" height="50" relative="1" as="geometry">
            <mxPoint x="560" y="630" as="sourcePoint" />
            <mxPoint x="610" y="580" as="targetPoint" />
          </mxGeometry>
        </mxCell>
        <mxCell id="F8UitF7IzX7oZV4iPMqC-72" value="" style="endArrow=none;html=1;rounded=0;fontSize=12;startSize=8;endSize=8;curved=1;entryX=0.25;entryY=1;entryDx=0;entryDy=0;exitX=1;exitY=0;exitDx=0;exitDy=0;" edge="1" parent="1" source="F8UitF7IzX7oZV4iPMqC-67" target="F8UitF7IzX7oZV4iPMqC-3">
          <mxGeometry width="50" height="50" relative="1" as="geometry">
            <mxPoint x="720" y="720" as="sourcePoint" />
            <mxPoint x="770" y="670" as="targetPoint" />
          </mxGeometry>
        </mxCell>
        <mxCell id="F8UitF7IzX7oZV4iPMqC-73" value="" style="endArrow=none;html=1;rounded=0;fontSize=12;startSize=8;endSize=8;curved=1;entryX=0.562;entryY=1.033;entryDx=0;entryDy=0;entryPerimeter=0;exitX=0.5;exitY=0;exitDx=0;exitDy=0;" edge="1" parent="1" source="F8UitF7IzX7oZV4iPMqC-69" target="F8UitF7IzX7oZV4iPMqC-3">
          <mxGeometry width="50" height="50" relative="1" as="geometry">
            <mxPoint x="750" y="710" as="sourcePoint" />
            <mxPoint x="800" y="660" as="targetPoint" />
          </mxGeometry>
        </mxCell>
        <mxCell id="F8UitF7IzX7oZV4iPMqC-74" value="MUSICIAN_INSTRUMENT" style="rhombus;whiteSpace=wrap;html=1;fontSize=16;" vertex="1" parent="1">
          <mxGeometry x="348.39" y="70" width="216" height="110" as="geometry" />
        </mxCell>
        <mxCell id="F8UitF7IzX7oZV4iPMqC-75" value="SONG_INSTRUMENT" style="rhombus;whiteSpace=wrap;html=1;fontSize=16;" vertex="1" parent="1">
          <mxGeometry x="564.39" y="235" width="210" height="110" as="geometry" />
        </mxCell>
        <mxCell id="F8UitF7IzX7oZV4iPMqC-77" value="SONG_MUSİCİAN" style="rhombus;whiteSpace=wrap;html=1;fontSize=16;" vertex="1" parent="1">
          <mxGeometry x="135.04" y="220" width="180" height="110" as="geometry" />
        </mxCell>
        <mxCell id="F8UitF7IzX7oZV4iPMqC-79" value="" style="endArrow=none;html=1;rounded=0;fontSize=12;startSize=8;endSize=8;curved=1;exitX=0.5;exitY=1;exitDx=0;exitDy=0;entryX=0.25;entryY=0;entryDx=0;entryDy=0;" edge="1" parent="1" source="F8UitF7IzX7oZV4iPMqC-77" target="F8UitF7IzX7oZV4iPMqC-4">
          <mxGeometry width="50" height="50" relative="1" as="geometry">
            <mxPoint x="290" y="280" as="sourcePoint" />
            <mxPoint x="340" y="230" as="targetPoint" />
          </mxGeometry>
        </mxCell>
        <mxCell id="F8UitF7IzX7oZV4iPMqC-81" value="" style="endArrow=none;html=1;rounded=0;fontSize=12;startSize=8;endSize=8;curved=1;entryX=0.75;entryY=1;entryDx=0;entryDy=0;exitX=0.5;exitY=0;exitDx=0;exitDy=0;" edge="1" parent="1" source="F8UitF7IzX7oZV4iPMqC-77" target="F8UitF7IzX7oZV4iPMqC-1">
          <mxGeometry width="50" height="50" relative="1" as="geometry">
            <mxPoint x="80" y="240" as="sourcePoint" />
            <mxPoint x="130" y="190" as="targetPoint" />
          </mxGeometry>
        </mxCell>
        <mxCell id="F8UitF7IzX7oZV4iPMqC-82" value="" style="endArrow=none;html=1;rounded=0;fontSize=12;startSize=8;endSize=8;curved=1;entryX=0;entryY=0.5;entryDx=0;entryDy=0;exitX=1;exitY=0.5;exitDx=0;exitDy=0;" edge="1" parent="1" source="F8UitF7IzX7oZV4iPMqC-1" target="F8UitF7IzX7oZV4iPMqC-74">
          <mxGeometry width="50" height="50" relative="1" as="geometry">
            <mxPoint x="240" y="150" as="sourcePoint" />
            <mxPoint x="290" y="100" as="targetPoint" />
          </mxGeometry>
        </mxCell>
        <mxCell id="F8UitF7IzX7oZV4iPMqC-83" value="" style="endArrow=none;html=1;rounded=0;fontSize=12;startSize=8;endSize=8;curved=1;entryX=0;entryY=0.5;entryDx=0;entryDy=0;exitX=1;exitY=0.5;exitDx=0;exitDy=0;" edge="1" parent="1" source="F8UitF7IzX7oZV4iPMqC-74" target="F8UitF7IzX7oZV4iPMqC-2">
          <mxGeometry width="50" height="50" relative="1" as="geometry">
            <mxPoint x="590" y="190" as="sourcePoint" />
            <mxPoint x="640" y="140" as="targetPoint" />
          </mxGeometry>
        </mxCell>
        <mxCell id="F8UitF7IzX7oZV4iPMqC-84" value="" style="endArrow=none;html=1;rounded=0;fontSize=12;startSize=8;endSize=8;curved=1;entryX=0.5;entryY=1;entryDx=0;entryDy=0;exitX=0.941;exitY=0.002;exitDx=0;exitDy=0;exitPerimeter=0;" edge="1" parent="1" source="F8UitF7IzX7oZV4iPMqC-4" target="F8UitF7IzX7oZV4iPMqC-75">
          <mxGeometry width="50" height="50" relative="1" as="geometry">
            <mxPoint x="550" y="370" as="sourcePoint" />
            <mxPoint x="600" y="320" as="targetPoint" />
          </mxGeometry>
        </mxCell>
        <mxCell id="F8UitF7IzX7oZV4iPMqC-85" value="" style="endArrow=none;html=1;rounded=0;fontSize=12;startSize=8;endSize=8;curved=1;exitX=0.5;exitY=0;exitDx=0;exitDy=0;entryX=0.5;entryY=1;entryDx=0;entryDy=0;" edge="1" parent="1" source="F8UitF7IzX7oZV4iPMqC-75" target="F8UitF7IzX7oZV4iPMqC-2">
          <mxGeometry width="50" height="50" relative="1" as="geometry">
            <mxPoint x="650" y="230" as="sourcePoint" />
            <mxPoint x="700" y="180" as="targetPoint" />
          </mxGeometry>
        </mxCell>
        <mxCell id="F8UitF7IzX7oZV4iPMqC-87" value="WORK" style="rhombus;whiteSpace=wrap;html=1;fontSize=16;" vertex="1" parent="1">
          <mxGeometry x="46.389999999999986" y="375" width="80" height="80" as="geometry" />
        </mxCell>
        <mxCell id="F8UitF7IzX7oZV4iPMqC-88" value="" style="endArrow=none;html=1;rounded=0;fontSize=12;startSize=8;endSize=8;curved=1;entryX=0.5;entryY=1;entryDx=0;entryDy=0;exitX=0.5;exitY=0;exitDx=0;exitDy=0;" edge="1" parent="1" source="F8UitF7IzX7oZV4iPMqC-87" target="F8UitF7IzX7oZV4iPMqC-1">
          <mxGeometry width="50" height="50" relative="1" as="geometry">
            <mxPoint x="30" y="360" as="sourcePoint" />
            <mxPoint x="80" y="310" as="targetPoint" />
          </mxGeometry>
        </mxCell>
        <mxCell id="F8UitF7IzX7oZV4iPMqC-89" value="" style="endArrow=none;html=1;rounded=0;fontSize=12;startSize=8;endSize=8;curved=1;entryX=0.5;entryY=1;entryDx=0;entryDy=0;exitX=0.5;exitY=0;exitDx=0;exitDy=0;" edge="1" parent="1" source="F8UitF7IzX7oZV4iPMqC-5" target="F8UitF7IzX7oZV4iPMqC-87">
          <mxGeometry width="50" height="50" relative="1" as="geometry">
            <mxPoint x="60" y="550" as="sourcePoint" />
            <mxPoint x="110" y="500" as="targetPoint" />
          </mxGeometry>
        </mxCell>
        <mxCell id="F8UitF7IzX7oZV4iPMqC-90" value="1" style="text;html=1;align=center;verticalAlign=middle;resizable=0;points=[];autosize=1;strokeColor=none;fillColor=none;fontSize=16;" vertex="1" parent="1">
          <mxGeometry x="85" y="180" width="30" height="30" as="geometry" />
        </mxCell>
        <mxCell id="F8UitF7IzX7oZV4iPMqC-91" value="N" style="text;html=1;align=center;verticalAlign=middle;resizable=0;points=[];autosize=1;strokeColor=none;fillColor=none;fontSize=16;" vertex="1" parent="1">
          <mxGeometry x="70" y="598" width="40" height="30" as="geometry" />
        </mxCell>
        <mxCell id="F8UitF7IzX7oZV4iPMqC-92" value="1" style="text;html=1;align=center;verticalAlign=middle;resizable=0;points=[];autosize=1;strokeColor=none;fillColor=none;fontSize=16;" vertex="1" parent="1">
          <mxGeometry x="175" y="108" width="30" height="30" as="geometry" />
        </mxCell>
        <mxCell id="F8UitF7IzX7oZV4iPMqC-93" value="N" style="text;html=1;align=center;verticalAlign=middle;resizable=0;points=[];autosize=1;strokeColor=none;fillColor=none;fontSize=16;" vertex="1" parent="1">
          <mxGeometry x="662.81" y="120" width="40" height="30" as="geometry" />
        </mxCell>
        <mxCell id="F8UitF7IzX7oZV4iPMqC-94" value="N" style="text;html=1;align=center;verticalAlign=middle;resizable=0;points=[];autosize=1;strokeColor=none;fillColor=none;fontSize=16;" vertex="1" parent="1">
          <mxGeometry x="740" y="178" width="40" height="30" as="geometry" />
        </mxCell>
        <mxCell id="F8UitF7IzX7oZV4iPMqC-95" value="N" style="text;html=1;align=center;verticalAlign=middle;resizable=0;points=[];autosize=1;strokeColor=none;fillColor=none;fontSize=16;" vertex="1" parent="1">
          <mxGeometry x="545.62" y="358" width="40" height="30" as="geometry" />
        </mxCell>
        <mxCell id="F8UitF7IzX7oZV4iPMqC-96" value="N" style="text;html=1;align=center;verticalAlign=middle;resizable=0;points=[];autosize=1;strokeColor=none;fillColor=none;fontSize=16;" vertex="1" parent="1">
          <mxGeometry x="140" y="170" width="40" height="30" as="geometry" />
        </mxCell>
        <mxCell id="F8UitF7IzX7oZV4iPMqC-97" value="N" style="text;html=1;align=center;verticalAlign=middle;resizable=0;points=[];autosize=1;strokeColor=none;fillColor=none;fontSize=16;" vertex="1" parent="1">
          <mxGeometry x="420" y="358" width="40" height="30" as="geometry" />
        </mxCell>
        <mxCell id="F8UitF7IzX7oZV4iPMqC-98" value="ALBUM_SONG" style="rhombus;whiteSpace=wrap;html=1;fontSize=16;" vertex="1" parent="1">
          <mxGeometry x="662.81" y="435" width="157.19" height="80" as="geometry" />
        </mxCell>
        <mxCell id="F8UitF7IzX7oZV4iPMqC-99" value="" style="endArrow=none;html=1;rounded=0;fontSize=12;startSize=8;endSize=8;curved=1;entryX=0.5;entryY=1;entryDx=0;entryDy=0;exitX=0.5;exitY=0;exitDx=0;exitDy=0;" edge="1" parent="1" source="F8UitF7IzX7oZV4iPMqC-3" target="F8UitF7IzX7oZV4iPMqC-98">
          <mxGeometry width="50" height="50" relative="1" as="geometry">
            <mxPoint x="650" y="600" as="sourcePoint" />
            <mxPoint x="700" y="550" as="targetPoint" />
          </mxGeometry>
        </mxCell>
        <mxCell id="F8UitF7IzX7oZV4iPMqC-100" value="" style="endArrow=none;html=1;rounded=0;fontSize=12;startSize=8;endSize=8;curved=1;entryX=0.5;entryY=0;entryDx=0;entryDy=0;exitX=1;exitY=0.5;exitDx=0;exitDy=0;" edge="1" parent="1" source="F8UitF7IzX7oZV4iPMqC-4" target="F8UitF7IzX7oZV4iPMqC-98">
          <mxGeometry width="50" height="50" relative="1" as="geometry">
            <mxPoint x="640" y="430" as="sourcePoint" />
            <mxPoint x="690" y="380" as="targetPoint" />
          </mxGeometry>
        </mxCell>
        <mxCell id="F8UitF7IzX7oZV4iPMqC-101" value="1" style="text;html=1;align=center;verticalAlign=middle;resizable=0;points=[];autosize=1;strokeColor=none;fillColor=none;fontSize=16;" vertex="1" parent="1">
          <mxGeometry x="555" y="418" width="30" height="30" as="geometry" />
        </mxCell>
        <mxCell id="F8UitF7IzX7oZV4iPMqC-102" value="N" style="text;html=1;align=center;verticalAlign=middle;resizable=0;points=[];autosize=1;strokeColor=none;fillColor=none;fontSize=16;" vertex="1" parent="1">
          <mxGeometry x="760" y="568" width="40" height="30" as="geometry" />
        </mxCell>
        <mxCell id="F8UitF7IzX7oZV4iPMqC-105" value="PRODUCE" style="rhombus;whiteSpace=wrap;html=1;fontSize=16;" vertex="1" parent="1">
          <mxGeometry x="380" y="628" width="110" height="80" as="geometry" />
        </mxCell>
        <mxCell id="F8UitF7IzX7oZV4iPMqC-106" value="" style="endArrow=none;html=1;rounded=0;fontSize=12;startSize=8;endSize=8;curved=1;exitX=1;exitY=0.5;exitDx=0;exitDy=0;entryX=0;entryY=0.5;entryDx=0;entryDy=0;" edge="1" parent="1" source="F8UitF7IzX7oZV4iPMqC-105" target="F8UitF7IzX7oZV4iPMqC-3">
          <mxGeometry width="50" height="50" relative="1" as="geometry">
            <mxPoint x="490" y="690" as="sourcePoint" />
            <mxPoint x="540" y="640" as="targetPoint" />
          </mxGeometry>
        </mxCell>
        <mxCell id="F8UitF7IzX7oZV4iPMqC-110" value="N&lt;br&gt;" style="edgeLabel;html=1;align=center;verticalAlign=middle;resizable=0;points=[];fontSize=16;" vertex="1" connectable="0" parent="F8UitF7IzX7oZV4iPMqC-106">
          <mxGeometry x="0.7539" y="1" relative="1" as="geometry">
            <mxPoint x="-3" y="-6" as="offset" />
          </mxGeometry>
        </mxCell>
        <mxCell id="F8UitF7IzX7oZV4iPMqC-107" value="" style="endArrow=none;html=1;rounded=0;fontSize=12;startSize=8;endSize=8;curved=1;entryX=0;entryY=0.5;entryDx=0;entryDy=0;" edge="1" parent="1" target="F8UitF7IzX7oZV4iPMqC-105">
          <mxGeometry width="50" height="50" relative="1" as="geometry">
            <mxPoint x="170" y="400" as="sourcePoint" />
            <mxPoint x="340" y="620" as="targetPoint" />
          </mxGeometry>
        </mxCell>
        <mxCell id="F8UitF7IzX7oZV4iPMqC-108" value="" style="endArrow=none;html=1;rounded=0;fontSize=12;startSize=8;endSize=8;curved=1;entryX=0.5;entryY=1;entryDx=0;entryDy=0;" edge="1" parent="1" target="F8UitF7IzX7oZV4iPMqC-1">
          <mxGeometry width="50" height="50" relative="1" as="geometry">
            <mxPoint x="170" y="400" as="sourcePoint" />
            <mxPoint x="190" y="350" as="targetPoint" />
          </mxGeometry>
        </mxCell>
        <mxCell id="F8UitF7IzX7oZV4iPMqC-109" value="Text" style="edgeLabel;html=1;align=center;verticalAlign=middle;resizable=0;points=[];fontSize=16;" vertex="1" connectable="0" parent="F8UitF7IzX7oZV4iPMqC-108">
          <mxGeometry x="0.7396" y="-4" relative="1" as="geometry">
            <mxPoint x="9" as="offset" />
          </mxGeometry>
        </mxCell>
        <mxCell id="F8UitF7IzX7oZV4iPMqC-111" value="" style="shape=stencil(lVjLcuMgEPwaX6eAgQHO2ex/pCrOxrXeOOUk+/j7HZUKRQxW27nZUjeaZzOw47u354fX/S64t/fz6ef+z+Hx/XnH33YhHF6e9+fDu/7a8f2O755O5/2P8+nj5XH+//owIadfv06/pxX+zjxP1U+k4P7NDwLJ/OD7DD8eXlbwSJUNvIRteCEJBu4A3AdK/fKeYgJ4oZgN3vE2PjiKvT2OMvBW3eVs8FEAvhDb9UPexnNorz/xHsSHhTgZvAPrR0dJLL4AfKQ0rO8AvrTsr/AgPonb6xW+AnwmLia/Htgj3tZDhPUmiSR2+EoF2COVcm+/z5RBwWWmZNpLUwg8yMt6jcCakwg6zLcKXlz2uCWT7bGYYVEXjUnvtKaxAEIt5GtH0DhnUKZKKH3aRMMAolQrxT5v2VMAjayE0judE1WkRG6p/MbQSDNIhH6i9jYVadq6RZC+2aqqI/6C78NUhQIKU2mlsxAKVaCnNdswreKwxfB9+amVATkhrdhWTmRUTamZvApTQSZpU/dOlHyNYDqiqC5jk6T3IQsucGkytKpXWBtihVu0qYByax5C74P2XEUmZRtWJSTQEVo6plxFWttulWswPmgXIh9UXU2UIq6l2lxcCCoMQL8nQq9MqoZoQ5xMMi23jBBbBLNDVx2ZsFiaLUWfQCkrbctfdVzBTc3REgRF6RIBybEKndkhSoT9oP0lfR40ccjpXIaOC3Dy0cpJvXwLN32+TAjEpoEcFFdtSKMaybfcXyZoTPrS0HHLA6d1mnG9tnJp88rWuGTEmFWpQJTGeUynjQzKexz4ePHqxolSCWg8GUfW6QtgxBpn4ismjUP3RACZHqd6Xry68digBEbnhuFcwrg0xoMPM2XQ0+PJSgnIpOHkxnjXHQ6GikeDw3DunNKCPG4HwQWvgy9Q7rF3XBvFL+KdHRo0AhGs76xchEQFrm9aczpog/gP46evbaq+EZ9aBm+zRyvEQ3uMvxWmdwinNP5t2dJ++VIxwMH5i3ccV+H64/M65elwPM63Mev39vpFH81XN3z/Hw==);lineShape=1;fontSize=16;" vertex="1" parent="1">
          <mxGeometry x="898.5534983630846" y="701.9522060563636" width="75.9291113336811" height="9.848319766241124" as="geometry" />
        </mxCell>
      </root>
    </mxGraphModel>
  </diagram>
</mxfile>
